<?xml version="1.0" encoding="UTF-8"?> <svg xmlns="http://www.w3.org/2000/svg" xmlns:xlink="http://www.w3.org/1999/xlink" version="1.1" id="Capa_1" x="0px" y="0px" width="300px" height="86px" viewBox="0 0 300 86" style="enable-background:new 0 0 300 86;" xml:space="preserve"> <g> <g> <g> <g> <path style="fill:#9AD11A;" d="M89.1,36.9V7.8h20.9V13H94.6v8h14.6v5.1H94.6v10.8H89.1z"></path> <path style="fill:#9AD11A;" d="M133.9,26.6c0,5.9-4,10.7-10.7,10.7c-6.7,0-10.7-4.8-10.7-10.7c0-5.9,4.1-10.7,10.6-10.7 C129.7,15.9,133.9,20.7,133.9,26.6z M117.6,26.6c0,3.1,1.9,6,5.6,6c3.7,0,5.6-2.9,5.6-6c0-3.1-2.2-6.1-5.6-6.1 C119.5,20.5,117.6,23.5,117.6,26.6z"></path> <path style="fill:#9AD11A;" d="M157.8,26.6c0,5.9-4,10.7-10.7,10.7s-10.7-4.8-10.7-10.7c0-5.9,4.1-10.7,10.6-10.7 C153.6,15.9,157.8,20.7,157.8,26.6z M141.5,26.6c0,3.1,1.9,6,5.6,6s5.6-2.9,5.6-6c0-3.1-2.2-6.1-5.6-6.1 C143.4,20.5,141.5,23.5,141.5,26.6z"></path> <path style="fill:#9AD11A;" d="M182.6,7.8v29.1h-4.7l-0.3-2.8c-1.6,2.5-4.1,3.3-6.6,3.3c-6,0-10.6-4-10.6-10.7 c0-7.1,4.5-10.7,10.5-10.7c2.2,0,5.5,1.2,6.7,3.3V7.8H182.6z M165.4,26.6c0,3.6,2.6,6,5.8,6c3.2,0,6-2.3,6-6c0-3.6-2.7-6-6-6 C168,20.6,165.4,22.9,165.4,26.6z"></path> </g> <g> <path style="fill:#9AD11A;" d="M102.9,64.1h-8.2v8.6h-5.5V43.6c4.6,0,9.2,0,13.7,0C117.1,43.5,117.1,64.1,102.9,64.1z M94.6,59.1h8.2c7,0,7-10.3,0-10.3h-8.2V59.1z"></path> <path style="fill:#9AD11A;" d="M132.3,52.2h4.9v20.5h-4.8l-0.2-3c-1.2,2.4-4.4,3.6-6.7,3.6c-6.1,0-10.6-3.7-10.6-10.9 c0-7.1,4.7-10.8,10.7-10.7c2.7,0,5.4,1.3,6.5,3.3L132.3,52.2z M120,62.4c0,3.9,2.7,6.2,6.1,6.2c8,0,8-12.5,0-12.5 C122.7,56.2,120,58.5,120,62.4z"></path> <path style="fill:#9AD11A;" d="M159.5,70.1c-2.4,2.3-4.9,3.2-7.9,3.2c-6,0-10.9-3.6-10.9-10.9s5-10.9,10.9-10.9 c2.9,0,5.2,0.8,7.4,3l-3.2,3.4c-1.2-1.1-2.7-1.6-4.1-1.6c-3.4,0-5.9,2.5-5.9,6.1c0,3.9,2.7,6,5.8,6c1.6,0,3.2-0.5,4.5-1.7 L159.5,70.1z"></path> <path style="fill:#9AD11A;" d="M166.7,43.6v16.8l6.9-8.2h6.1v0.3l-8.4,9.4l9.5,10.5v0.4h-6.1l-8-9.3v9.3h-5.1V43.6H166.7z"></path> <path style="fill:#9AD11A;" d="M199.5,52.2h4.9v20.5h-4.8l-0.2-3c-1.2,2.4-4.4,3.6-6.7,3.6c-6.1,0-10.6-3.7-10.6-10.9 c0-7.1,4.7-10.8,10.7-10.7c2.7,0,5.4,1.3,6.5,3.3L199.5,52.2z M187.1,62.4c0,3.9,2.7,6.2,6.1,6.2c8,0,8-12.5,0-12.5 C189.9,56.2,187.1,58.5,187.1,62.4z"></path> <path style="fill:#9AD11A;" d="M224.8,50.1l3.7,2.8l-2.3,2.9c1.6,1.8,2.2,3.8,2.2,6.1c0,2.5-1,6.1-4.3,7.7 c3.4,1.7,4.2,4.2,4.2,6.8c0,5.7-4.3,9.2-10.3,9.2c-6,0-10.4-3.6-10.4-9.2h5c0,2.7,2.5,4.4,5.4,4.4c2.9,0,5.2-1.6,5.2-4.4 s-2.7-4.1-5.2-4.1c-6.4,0-10.4-3.9-10.4-10.3s4.7-10.4,10.4-10.4c1.6,0,3.3,0.2,4.7,1.2L224.8,50.1z M212.6,61.9 c0,3.6,2.4,5.7,5.4,5.7c2.9,0,5.3-2.2,5.3-5.7c0-3.5-2.4-5.8-5.3-5.8C215,56.1,212.6,58.3,212.6,61.9z"></path> <path style="fill:#9AD11A;" d="M237.2,46.4c0,4-6,4-6,0C231.2,42.4,237.2,42.4,237.2,46.4z M231.6,52.1v20.6h5.1V52.1H231.6z"></path> <path style="fill:#9AD11A;" d="M256.4,72.7V62c0-3.1-1.7-5.5-5-5.5c-3.1,0-5.2,2.6-5.2,5.7v10.5h-5V52.1h4.5l0.3,2.8 c2.1-2,4.2-3.1,6.7-3.1c4.8,0,8.7,3.6,8.7,10.1v10.8H256.4z"></path> <path style="fill:#9AD11A;" d="M282,50.1l3.7,2.8l-2.3,2.9c1.6,1.8,2.2,3.8,2.2,6.1c0,2.5-1,6.1-4.3,7.7 c3.4,1.7,4.2,4.2,4.2,6.8c0,5.7-4.3,9.2-10.3,9.2c-6,0-10.4-3.6-10.4-9.2h5c0,2.7,2.5,4.4,5.4,4.4c2.9,0,5.2-1.6,5.2-4.4 s-2.7-4.1-5.2-4.1c-6.4,0-10.4-3.9-10.4-10.3s4.7-10.4,10.4-10.4c1.6,0,3.3,0.2,4.7,1.2L282,50.1z M269.9,61.9 c0,3.6,2.4,5.7,5.4,5.7c2.9,0,5.3-2.2,5.3-5.7c0-3.5-2.4-5.8-5.3-5.8C272.3,56.1,269.9,58.3,269.9,61.9z"></path> </g> <g> <g> <path style="fill:#9AD11A;" d="M54.9,11.5c0.1,1.8,0.2,3.5,0.4,5.3c0.1,1.4,1,3.2,2.1,4.1c5.1,4.2,7.3,9.9,8,16.2 c0.8,6.3,0.1,12.6-2.8,18.3c-1.8,3.5-4.1,6.5-8,7.7c-3.7,1.1-7.8-0.6-10.5-4.1c-3.9-5.1-5-11.2-5.4-17.7 c0.6-7.5,1.9-15,8.4-20.4c1-0.8,1.7-2.4,1.8-3.7c0.2-2.9,0.4-5.9,0.6-8.8L35.8,0.5c-1.1-0.6-2.4-0.6-3.4,0L1.7,19.2 C0.7,19.9,0,21,0,22.3v35.1c0,1.3,0.7,2.5,1.7,3.1L3,61.3c0.5-6.8,0.8-13.7,1.2-20.5c0-0.8,0.2-1.6,0.3-2.3 c0.3,0,0.5,0,0.8-0.1c0.1,1,0.3,2.1,0.3,3.1c0,7.1,0,14.3,0,21.4l2.7,1.3c0.1-7.8,0.9-14.6,0.9-22.4c0-1.1,0-2.3,0-3.4 c0.4,0,0.8,0,1.2,0c0.1,1.1,0.2,2.2,0.2,3.3c0,8.1,0,16.3,0,24.4l3.2,2c0.1-8.9,0-17.7,0.1-26.6c0-1.1,0.2-2.1,0.3-3.2 c0.4,0,0.7,0,1.1,0c0.1,1.1,0.3,2.1,0.3,3.2c0,9.1,0.8,19,1,28.1c0,0.2,2.4,1.6,2.4,1.6c0.2-0.7,0.1-1.5,0.1-2.2 c0-9.1,0-18.2,0-27.3c0-1.1,0.1-2.2,0.1-3.3c0.3,0,0.6,0,0.9-0.1c0.1,0.9,0.2,1.9,0.3,2.8c0.8,10.8,1.8,21.6,2.3,32.4l5.6,3.5 c0.4,0.2,0.9,0,1-0.5c0.2-1.2,0.3-2.5,0.4-3.7c0.4-6.3,0.3-12.6,0.3-18.9c0-0.7-0.4-1.4-0.8-2c-5.5-7.5-5.6-16.1-4.6-24.8 c0.6-5.5,1.6-10.9,4-15.9c1.1-2.2,2.1-4.6,4.9-6c0.2,1.6,0.6,2.9,0.5,4.2c-0.2,10.5-0.4,21-0.7,31.5 c-0.3,11.9-0.8,23.8,0.4,35.7c0.1,1.3,0.3,2.7,0.5,4l0.2,0.1L67,62.2c1.6-0.9,2.5-2.6,2.5-4.4V21.9c0-1.2-0.6-2.2-1.6-2.8 L54.9,11.5z"></path> </g> </g> </g> </g> <g> <path style="fill:#9AD11A;" d="M295.4,85.9c-2.5,0-4.6-2.1-4.6-4.6c0-2.5,2.1-4.6,4.6-4.6c2.5,0,4.6,2.1,4.6,4.6 C300,83.9,297.9,85.9,295.4,85.9 M295.4,77.7c-2,0-3.6,1.6-3.6,3.6c0,2,1.6,3.6,3.6,3.6s3.6-1.6,3.6-3.6 C299,79.3,297.4,77.7,295.4,77.7"></path> </g> <g> <path style="fill:#9AD11A;" d="M297.8,83.6h-1.1l-1.4-1.6h-0.9v1.6h-0.9v-4.7c0.7,0,1.5,0,2.2,0c1.1,0,1.7,0.7,1.7,1.6 c0,0.6-0.3,1.3-1.2,1.5L297.8,83.6L297.8,83.6z M294.5,79.7v1.5h1.4c0.6,0,0.8-0.4,0.8-0.8c0-0.4-0.2-0.8-0.8-0.8H294.5z"></path> </g> </g> </svg> 